<svg width="240" height="240" viewBox="0 0 240 240" fill="none" xmlns="http://www.w3.org/2000/svg">
  <rect width="240" height="240" rx="56" fill="url(#bg)" />
  <path
    d="M74 160C64 152 58 141 56 128C66 130 74 135 81 144C78 130 78 117 83 105C92 110 98 118 100 130C102 116 108 104 119 94C125 102 128 112 127 124C136 114 148 107 162 104C161 117 155 128 144 138C158 137 170 140 180 149C171 156 160 160 147 160H74Z"
    fill="#2C6A35"
    fill-opacity="0.94"
  />
  <path
    d="M112 78C111 62 116 48 127 36C136 46 141 58 140 72C153 62 168 58 184 61C180 76 171 86 156 91C168 97 177 107 183 120C168 123 155 119 143 109C143 125 137 139 126 151C116 140 111 127 112 112C100 121 87 124 72 121C76 108 84 98 96 91C83 87 73 78 68 65C84 61 99 65 112 78Z"
    fill="#88C057"
  />
  <g transform="translate(110 114)">
    <rect x="0" y="0" width="94" height="64" rx="18" fill="#171411" />
    <rect x="4" y="4" width="86" height="56" rx="14" stroke="#F5EBDD" stroke-opacity="0.18" stroke-width="2" />
    <path d="M16 19H31V24L24 45H18L24.5 24H16V19Z" fill="#FFF7EF" />
    <path d="M39 19H56C62 19 66 22 66 27V28C66 32 64 35 59 37C64 38 67 42 67 47V48C67 55 62 59 54 59H39V54H53C56 54 58 52 58 49V48C58 45 56 43 52 43H43V38H52C56 38 57 35 57 33V32C57 29 55 24 50 24H39V19Z" fill="#FFF7EF" />
    <path d="M75 19H84V59H75V19ZM72 59H87V54H72V59Z" fill="#FFF7EF" />
  </g>
  <defs>
    <linearGradient id="bg" x1="26" y1="18" x2="220" y2="226" gradientUnits="userSpaceOnUse">
      <stop stop-color="#F3E4CB" />
      <stop offset="1" stop-color="#D5B68C" />
    </linearGradient>
  </defs>
</svg>
